# Blender v2.83.1 OBJ File: 'scene2.blend'
# www.blender.org
o Table_old_wooden_table_Mesh
v 2.894984 -3.628730 1.591692
v 2.894984 -3.628730 1.394981
v 3.091695 -3.628730 1.394981
v 3.091695 -3.628730 1.591692
v 3.091695 -3.628729 -1.394986
v 2.894984 -3.628729 -1.394986
v 2.894984 -3.628729 -1.591696
v 3.091695 -3.628729 -1.591696
v -2.894983 -3.628729 -1.591696
v -2.894984 -3.628729 -1.394986
v -3.091695 -3.628729 -1.394986
v -3.091695 -3.628729 -1.591696
v -3.091695 -3.628730 1.394981
v -2.894984 -3.628730 1.394981
v -2.894984 -3.628730 1.591692
v -3.091695 -3.628730 1.591692
v 3.125000 -0.128730 1.625000
v 2.875000 -0.128730 1.625000
v 2.875000 -0.478730 1.625000
v 3.125000 -0.478730 1.625000
v 2.875000 -0.128730 1.575000
v 2.875000 -0.478730 1.575000
v -2.875000 -0.128730 1.575000
v -2.875000 -0.478730 1.575000
v -2.875000 -0.128730 1.625000
v -2.875000 -0.478730 1.625000
v -3.125000 -0.128730 1.625000
v -3.125000 -0.478730 1.625000
v -3.125000 -0.128730 1.375000
v -3.125000 -0.478730 1.375000
v -3.075000 -0.128730 1.375000
v -3.075000 -0.478730 1.375000
v -3.075000 -0.128730 -1.375000
v -3.075000 -0.478730 -1.375000
v -3.125000 -0.128730 -1.375000
v -3.125000 -0.478730 -1.375000
v -3.125000 -0.128730 -1.625000
v -3.125000 -0.478730 -1.625000
v -2.875000 -0.128730 -1.625000
v -2.875000 -0.478730 -1.625000
v -2.875000 -0.128730 -1.575000
v -2.875000 -0.478730 -1.575000
v 2.875000 -0.128730 -1.575000
v 2.875000 -0.478730 -1.575000
v 2.875000 -0.128730 -1.625000
v 2.875000 -0.478730 -1.625000
v 3.125000 -0.128730 -1.625000
v 3.125000 -0.478730 -1.625000
v 3.125000 -0.128730 -1.375000
v 3.125000 -0.478730 -1.375000
v 3.075000 -0.128730 -1.375000
v 3.075000 -0.478730 -1.375000
v 3.075000 -0.128730 1.375000
v 3.075000 -0.478730 1.375000
v 3.125000 -0.128730 1.375000
v 3.125000 -0.478730 1.375000
v 2.875000 -0.128730 1.424999
v 2.875000 -0.128730 1.375000
v 2.875000 -0.478730 1.375000
v 2.875000 -0.478730 1.424999
v 2.924999 -0.128730 1.375000
v 2.924999 -0.478730 1.375000
v 2.924999 -0.128730 -1.375000
v 2.924999 -0.478730 -1.375000
v 2.875000 -0.128730 -1.375000
v 2.875000 -0.478730 -1.375000
v 2.875000 -0.128730 -1.425000
v 2.875000 -0.478730 -1.425000
v -2.875000 -0.128730 -1.425000
v -2.875000 -0.478730 -1.425000
v -2.875000 -0.128730 -1.375000
v -2.875000 -0.478730 -1.375000
v -2.924999 -0.128730 -1.375000
v -2.924999 -0.478730 -1.375000
v -2.924999 -0.128730 1.375000
v -2.924999 -0.478730 1.375000
v -2.875000 -0.128730 1.375000
v -2.875000 -0.478730 1.375000
v -2.875000 -0.128730 1.425000
v -2.875000 -0.478730 1.425000
v -3.250000 0.021270 1.750000
v 3.250000 0.021270 1.750000
v 3.250000 0.021270 -1.750000
v -3.250000 0.021270 -1.750000
v -3.250000 -0.128730 1.750000
v 3.250000 -0.128730 1.750000
v 3.250000 -0.128730 -1.750000
v -3.250000 -0.128730 -1.750000
vt 0.516255 0.655905
vt 0.516255 0.639262
vt 0.532898 0.639262
vt 0.532898 0.655905
vt 0.532898 0.655905
vt 0.516255 0.655905
vt 0.516255 0.639262
vt 0.532898 0.639262
vt 0.532898 0.639262
vt 0.532898 0.655905
vt 0.516255 0.655905
vt 0.516255 0.639262
vt 0.516255 0.639262
vt 0.532898 0.639262
vt 0.532898 0.655905
vt 0.516255 0.655905
vt 0.027253 0.993810
vt 0.002000 0.993618
vt 0.002573 0.958077
vt 0.027936 0.958417
vt 0.098658 0.994264
vt 0.093746 0.994291
vt 0.093820 0.958791
vt 0.098181 0.958779
vt 0.582724 0.623452
vt 0.002000 0.623453
vt 0.002000 0.588104
vt 0.582724 0.588104
vt 0.906907 0.357133
vt 0.902341 0.357124
vt 0.902485 0.321649
vt 0.906686 0.321666
vt 0.877540 0.357010
vt 0.878154 0.321608
vt 0.852350 0.356870
vt 0.852854 0.321335
vt 0.948677 0.357390
vt 0.943790 0.357424
vt 0.943862 0.321925
vt 0.948140 0.321903
vt 0.498953 0.825118
vt 0.221215 0.825118
vt 0.221215 0.789769
vt 0.498953 0.789769
vt 0.794769 0.357276
vt 0.789966 0.357256
vt 0.790263 0.321779
vt 0.794503 0.321815
vt 0.764882 0.357060
vt 0.765709 0.321658
vt 0.739433 0.356685
vt 0.740214 0.321192
vt 0.837035 0.357439
vt 0.832145 0.357468
vt 0.832250 0.321980
vt 0.836519 0.321969
vt 0.582774 0.522291
vt 0.002000 0.522284
vt 0.002000 0.486939
vt 0.582775 0.486941
vt 0.189132 0.997770
vt 0.184698 0.997830
vt 0.184061 0.961957
vt 0.187923 0.961929
vt 0.160234 0.997981
vt 0.160244 0.962074
vt 0.135711 0.998000
vt 0.136289 0.962097
vt 0.131140 0.997966
vt 0.132196 0.962057
vt 0.499033 0.724614
vt 0.221295 0.724614
vt 0.221295 0.689266
vt 0.499033 0.689266
vt 0.056899 0.993973
vt 0.052193 0.993966
vt 0.052342 0.958498
vt 0.056408 0.958520
vt 0.079640 0.994234
vt 0.074738 0.994230
vt 0.074724 0.958735
vt 0.079307 0.958767
vt 0.069923 0.994201
vt 0.070472 0.958686
vt 0.221295 0.638768
vt 0.499033 0.638768
vt 0.499033 0.674116
vt 0.221295 0.674116
vt 0.119193 0.997736
vt 0.114367 0.997849
vt 0.113973 0.961951
vt 0.118275 0.961868
vt 0.205980 0.997788
vt 0.201192 0.997834
vt 0.201543 0.961925
vt 0.205350 0.961881
vt 0.002001 0.436447
vt 0.582776 0.436451
vt 0.582776 0.471797
vt 0.002001 0.471796
vt 0.818260 0.357420
vt 0.813387 0.357438
vt 0.813321 0.321954
vt 0.817849 0.321962
vt 0.808497 0.357427
vt 0.808868 0.321929
vt 0.221215 0.739272
vt 0.498953 0.739272
vt 0.498953 0.774620
vt 0.221215 0.774620
vt 0.929858 0.357396
vt 0.924994 0.357411
vt 0.924911 0.321905
vt 0.929444 0.321922
vt 0.920174 0.357404
vt 0.920711 0.321900
vt 0.002000 0.537606
vt 0.582724 0.537606
vt 0.582724 0.572955
vt 0.002000 0.572955
vt 0.052513 0.639240
vt 0.074269 0.639323
vt 0.030911 0.639134
vt 0.010749 0.638768
vt 0.095410 0.639400
vt 0.181036 0.638867
vt 0.202748 0.638768
vt 0.158585 0.639037
vt 0.136482 0.639072
vt 0.115550 0.638975
vt 0.790884 0.002597
vt 0.812427 0.002644
vt 0.769560 0.002448
vt 0.749748 0.002000
vt 0.833651 0.002686
vt 0.880499 0.002305
vt 0.902283 0.002362
vt 0.860233 0.002000
vt 0.924033 0.002431
vt 0.945261 0.002497
vt 0.034824 0.034824
vt 0.691294 0.034824
vt 0.691294 0.388308
vt 0.034823 0.388308
vt 0.034823 0.019674
vt 0.691294 0.019674
vt 0.706444 0.034824
vt 0.706444 0.388308
vt 0.691294 0.403457
vt 0.034823 0.403457
vt 0.019674 0.388308
vt 0.019674 0.034824
vt 0.007050 0.375683
vt 0.007050 0.350435
vt 0.002000 0.350435
vt 0.002000 0.072697
vt 0.007050 0.072697
vt 0.007050 0.047448
vt 0.719068 0.047448
vt 0.719068 0.072697
vt 0.724118 0.072697
vt 0.724118 0.350435
vt 0.719068 0.350435
vt 0.719068 0.375683
vt 0.637911 0.073604
vt 0.637911 0.350039
vt 0.070491 0.350039
vt 0.070491 0.073604
vt 0.070491 0.073604
vt 0.637911 0.073604
vt 0.637911 0.350039
vt 0.070491 0.350039
vt 0.070491 0.073604
vt 0.637911 0.073604
vt 0.070491 0.350039
vt 0.637911 0.350039
vt 0.072696 0.007050
vt 0.072696 0.002000
vt 0.653421 0.002000
vt 0.653421 0.007050
vt 0.678670 0.007050
vt 0.047448 0.007050
vt 0.653421 0.416082
vt 0.653421 0.421132
vt 0.072697 0.421131
vt 0.072697 0.416081
vt 0.047448 0.416081
vt 0.678670 0.416082
vn 0.0000 -1.0000 0.0000
vn 0.0000 -0.0000 1.0000
vn -1.0000 0.0000 0.0000
vn 1.0000 0.0000 0.0000
vn 0.0000 0.0000 -1.0000
vn 0.0000 -0.0063 -1.0000
vn 0.9999 -0.0106 0.0000
vn 0.0000 -0.0106 0.9999
vn -1.0000 -0.0063 0.0000
vn 0.0000 -0.0106 -0.9999
vn 0.0000 -0.0063 1.0000
vn -0.9999 -0.0106 0.0000
vn 1.0000 -0.0063 0.0000
vn 0.0000 1.0000 0.0000
s off
f 1/1/1 2/2/1 3/3/1
f 3/3/1 4/4/1 1/1/1
f 5/5/1 6/6/1 7/7/1
f 7/7/1 8/8/1 5/5/1
f 9/9/1 10/10/1 11/11/1
f 11/11/1 12/12/1 9/9/1
f 13/13/1 14/14/1 15/15/1
f 15/15/1 16/16/1 13/13/1
f 17/17/2 18/18/2 19/19/2
f 19/19/2 20/20/2 17/17/2
f 18/21/3 21/22/3 22/23/3
f 22/23/3 19/24/3 18/21/3
f 21/25/2 23/26/2 24/27/2
f 24/27/2 22/28/2 21/25/2
f 23/29/4 25/30/4 26/31/4
f 26/31/4 24/32/4 23/29/4
f 25/30/2 27/33/2 28/34/2
f 28/34/2 26/31/2 25/30/2
f 27/33/3 29/35/3 30/36/3
f 30/36/3 28/34/3 27/33/3
f 29/37/5 31/38/5 32/39/5
f 32/39/5 30/40/5 29/37/5
f 31/41/3 33/42/3 34/43/3
f 34/43/3 32/44/3 31/41/3
f 33/45/2 35/46/2 36/47/2
f 36/47/2 34/48/2 33/45/2
f 35/46/3 37/49/3 38/50/3
f 38/50/3 36/47/3 35/46/3
f 37/49/5 39/51/5 40/52/5
f 40/52/5 38/50/5 37/49/5
f 39/53/4 41/54/4 42/55/4
f 42/55/4 40/56/4 39/53/4
f 41/57/5 43/58/5 44/59/5
f 44/59/5 42/60/5 41/57/5
f 43/61/3 45/62/3 46/63/3
f 46/63/3 44/64/3 43/61/3
f 45/62/5 47/65/5 48/66/5
f 48/66/5 46/63/5 45/62/5
f 47/65/4 49/67/4 50/68/4
f 50/68/4 48/66/4 47/65/4
f 49/67/2 51/69/2 52/70/2
f 52/70/2 50/68/2 49/67/2
f 51/71/4 53/72/4 54/73/4
f 54/73/4 52/74/4 51/71/4
f 53/75/5 55/76/5 56/77/5
f 56/77/5 54/78/5 53/75/5
f 55/76/4 17/17/4 20/20/4
f 20/20/4 56/77/4 55/76/4
f 57/79/3 58/80/3 59/81/3
f 59/81/3 60/82/3 57/79/3
f 58/80/5 61/83/5 62/84/5
f 62/84/5 59/81/5 58/80/5
f 61/85/3 63/86/3 64/87/3
f 64/87/3 62/88/3 61/85/3
f 63/89/2 65/90/2 66/91/2
f 66/91/2 64/92/2 63/89/2
f 65/93/3 67/94/3 68/95/3
f 68/95/3 66/96/3 65/93/3
f 67/97/2 69/98/2 70/99/2
f 70/99/2 68/100/2 67/97/2
f 69/101/4 71/102/4 72/103/4
f 72/103/4 70/104/4 69/101/4
f 71/102/2 73/105/2 74/106/2
f 74/106/2 72/103/2 71/102/2
f 73/107/4 75/108/4 76/109/4
f 76/109/4 74/110/4 73/107/4
f 75/111/5 77/112/5 78/113/5
f 78/113/5 76/114/5 75/111/5
f 77/112/4 79/115/4 80/116/4
f 80/116/4 78/113/4 77/112/4
f 79/117/5 57/118/5 60/119/5
f 60/119/5 80/120/5 79/117/5
f 54/78/6 56/77/6 3/121/6
f 62/84/6 54/78/6 3/121/6
f 59/81/6 62/84/6 3/121/6
f 59/81/6 3/121/6 2/122/6
f 56/77/7 20/20/7 4/123/7
f 4/123/7 3/121/7 56/77/7
f 20/20/8 19/19/8 1/124/8
f 1/124/8 4/123/8 20/20/8
f 60/82/9 59/81/9 2/122/9
f 22/23/9 60/82/9 2/122/9
f 22/23/9 2/122/9 1/125/9
f 19/24/9 22/23/9 1/125/9
f 44/64/9 46/63/9 7/126/9
f 68/95/9 44/64/9 7/126/9
f 66/96/9 68/95/9 7/126/9
f 66/96/9 7/126/9 6/127/9
f 46/63/10 48/66/10 8/128/10
f 8/128/10 7/126/10 46/63/10
f 48/66/7 50/68/7 5/129/7
f 5/129/7 8/128/7 48/66/7
f 64/92/11 66/91/11 6/130/11
f 52/70/11 64/92/11 6/130/11
f 52/70/11 6/130/11 5/129/11
f 50/68/11 52/70/11 5/129/11
f 34/48/11 36/47/11 11/131/11
f 74/106/11 34/48/11 11/131/11
f 72/103/11 74/106/11 11/131/11
f 72/103/11 11/131/11 10/132/11
f 36/47/12 38/50/12 12/133/12
f 12/133/12 11/131/12 36/47/12
f 38/50/10 40/52/10 9/134/10
f 9/134/10 12/133/10 38/50/10
f 70/104/13 72/103/13 10/132/13
f 42/55/13 70/104/13 10/132/13
f 42/55/13 10/132/13 9/135/13
f 40/56/13 42/55/13 9/135/13
f 26/31/8 28/34/8 16/136/8
f 16/136/8 15/137/8 26/31/8
f 28/34/12 30/36/12 13/138/12
f 13/138/12 16/136/12 28/34/12
f 76/114/6 78/113/6 14/139/6
f 32/39/6 76/114/6 14/139/6
f 30/40/6 32/39/6 14/139/6
f 30/40/6 14/139/6 13/140/6
f 24/32/13 26/31/13 15/137/13
f 80/116/13 24/32/13 15/137/13
f 80/116/13 15/137/13 14/139/13
f 78/113/13 80/116/13 14/139/13
s 1
f 81/141/14 82/142/14 83/143/14
f 83/143/14 84/144/14 81/141/14
f 85/145/2 86/146/2 82/142/2
f 82/142/2 81/141/2 85/145/2
f 86/147/4 87/148/4 83/143/4
f 83/143/4 82/142/4 86/147/4
f 87/149/5 88/150/5 84/144/5
f 84/144/5 83/143/5 87/149/5
f 88/151/3 85/152/3 81/141/3
f 81/141/3 84/144/3 88/151/3
f 85/152/1 88/151/1 37/153/1
f 85/152/1 37/153/1 35/154/1
f 85/152/1 35/154/1 33/155/1
f 85/152/1 33/155/1 31/156/1
f 85/152/1 31/156/1 29/157/14
f 85/152/1 29/157/14 27/158/1
f 24/27/1 80/120/1 60/119/1
f 60/119/1 22/28/1 24/27/1
f 64/87/1 52/74/1 54/73/1
f 54/73/1 62/88/1 64/87/1
f 70/99/1 42/60/1 44/59/1
f 44/59/1 68/100/1 70/99/1
f 86/147/1 17/159/1 55/160/1
f 55/160/1 53/161/1 51/162/1
f 86/147/1 55/160/1 51/162/1
f 86/147/1 51/162/1 49/163/1
f 87/148/1 86/147/1 49/163/1
f 87/148/1 49/163/1 47/164/1
f 34/43/1 74/110/1 76/109/1
f 76/109/1 32/44/1 34/43/1
f 75/165/1 73/166/1 71/167/1
f 77/168/1 75/165/1 71/167/1
f 71/167/1 69/169/1 67/170/1
f 71/167/1 67/170/1 65/171/1
f 65/171/1 63/172/1 61/173/1
f 65/171/1 61/173/1 58/174/1
f 71/167/1 65/171/1 58/174/1
f 77/168/1 71/167/1 58/174/1
f 79/175/1 77/168/1 58/174/1
f 79/175/1 58/174/1 57/176/1
f 25/177/1 23/178/1 21/179/1
f 18/180/14 17/181/1 86/146/1
f 21/179/1 18/180/14 86/146/1
f 25/177/1 21/179/1 86/146/1
f 27/182/1 25/177/1 86/146/1
f 27/182/1 86/146/1 85/145/1
f 45/183/1 43/184/1 41/185/1
f 39/186/14 37/187/1 88/150/1
f 41/185/1 39/186/14 88/150/1
f 45/183/1 41/185/1 88/150/1
f 47/188/1 45/183/1 88/150/1
f 47/188/1 88/150/1 87/149/1
